# xmcd
#
# Track frame offsets:
#	150
#	15140
#	30625
#	59280
#	69498
#	81673
#	94073
#	105793
#	113478
#	122023
#	130893
#	144770
#	156037
#	168792
#	184209
#	197329
#	206879
#	217462
#	231325
#	242010
#	261090
#	277730
#	288715
#	296347
#	309924
#	320088
#	336106
#
# Disc length: 4683 seconds
#
# Revision: 1
# Processed by: cddbd v1.4PL0 Copyright (c) Steve Scherf et al.
# Submitted via: EasyCDDAExtractor 5.0.7
#
DISCID=8012491b
DTITLE=GREENHORNS - HITS
DYEAR=1900
DGENRE=
TTITLE0=Divnej smich
TTITLE1=El Paso
TTITLE2=Feleena z El Pasa
TTITLE3=Hej, Joe
TTITLE4=Hromskej den
TTITLE5=Michaluv song
TTITLE6=Rok 1849
TTITLE7=Vlak v 0,5
TTITLE8=A tak ja v tom zas litam
TTITLE9=Abilene
TTITLE10=Blizko Little Big Hornu
TTITLE11=Blues folsomske veznice
TTITLE12=Blues hvizdaveho vlaku
TTITLE13=Cervena reka
TTITLE14=Jen tohle chci ti rict
TTITLE15=John Hardy
TTITLE16=Kdyz nas tata hral
TTITLE17=Na vanoce rano
TTITLE18=Odjizdim v dal
TTITLE19=Oranzovy expres
TTITLE20=Pres plane
TTITLE21=Rovnou tady rovnou
TTITLE22=Slapej dal
TTITLE23=T jako Texas
TTITLE24=Tak ja jdu dal
TTITLE25=Zatracenej zivot
TTITLE26=Zluta kytka
EXTD=
EXTT0=
EXTT1=
EXTT2=
EXTT3=
EXTT4=
EXTT5=
EXTT6=
EXTT7=
EXTT8=
EXTT9=
EXTT10=
EXTT11=
EXTT12=
EXTT13=
EXTT14=
EXTT15=
EXTT16=
EXTT17=
EXTT18=
EXTT19=
EXTT20=
EXTT21=
EXTT22=
EXTT23=
EXTT24=
EXTT25=
EXTT26=
PLAYORDER=
